<svg width="126" height="24" viewBox="0 0 126 24" fill="none" xmlns="http://www.w3.org/2000/svg">
    <path d="M35.3303 0C28.5853 0 23.1191 5.37031 23.1191 11.9971C23.1191 18.624 28.5853 23.9943 35.3303 23.9943C42.0754 23.9943 47.5415 18.624 47.5415 11.9971C47.5415 5.37031 42.0754 0 35.3303 0ZM35.3303 18.928C31.4351 18.928 28.2758 15.8241 28.2758 11.9971C28.2758 8.17022 31.4351 5.06622 35.3303 5.06622C39.2255 5.06622 42.3849 8.17022 42.3849 11.9971C42.3907 15.8241 39.2314 18.928 35.3303 18.928Z" fill="#00B8FF"/>
    <path d="M5.92748 6.70153C5.92748 3.92458 13.3441 3.89015 14.9443 7.45888L19.1139 5.09503C17.9693 2.3984 13.8055 0.00585938 9.68836 0.00585938C4.8179 0.00585938 0.671583 2.50741 0.671583 6.87366C0.671583 11.8538 6.5173 13.1505 8.95253 13.73C11.3878 14.3095 14.6289 14.8144 14.6289 16.7881C14.6289 18.6183 12.5266 19.3068 10.2023 19.3068C7.26482 19.3068 4.98141 18.3372 3.98279 16.0938L0 18.3544C1.23222 21.8371 5.26757 24.0001 10.0855 24.0001C16.3633 24.0001 19.8556 21.1543 19.8556 16.5815C19.8556 12.9612 16.6436 10.6547 12.7368 9.71946C9.2562 8.88179 5.92748 8.39983 5.92748 6.70153Z" fill="#00B8FF"/>
    <path d="M69.7331 14.6134C68.7053 17.1953 66.4161 18.9395 63.4202 18.9395C59.5192 18.9395 56.4824 15.8298 56.4824 11.9971C56.4824 8.16448 59.5133 5.05475 63.4202 5.05475C66.2759 5.05475 68.6177 6.61535 69.7331 9.00789L74.3291 6.40306C72.3786 2.56467 68.1155 0 63.4202 0C56.6751 0 51.209 5.37031 51.209 11.9971C51.209 18.624 56.6751 23.9943 63.4202 23.9943C68.2556 23.9943 72.3786 21.2288 74.3408 17.224L69.7331 14.6134Z" fill="#00B8FF"/>
    <path d="M91.3535 0.601562H85.5604L76.1523 23.3623H82.1032L88.4628 7.062L95.0093 23.3623H100.96L91.3535 0.601562Z" fill="#00B8FF"/>
    <path d="M120.254 15.0489L120.698 14.7849C122.976 13.4424 124.284 11.1588 124.284 8.51383C124.284 3.86071 120.798 0.613281 115.804 0.613281H104.609V23.374H109.877V16.0873H114.969L119.256 23.374H125.142L120.254 15.0489ZM115.501 11.6178H109.889V5.38689H115.501C117.586 5.38689 118.981 6.63767 118.981 8.49662C118.981 10.3613 117.58 11.6178 115.501 11.6178Z" fill="#00B8FF"/>
</svg>
