<svg width="126" height="24" viewBox="0 0 126 24" fill="none" xmlns="http://www.w3.org/2000/svg">
    <path d="M35.3313 0C28.5862 0 23.1201 5.37031 23.1201 11.9971C23.1201 18.624 28.5862 23.9943 35.3313 23.9943C42.0764 23.9943 47.5425 18.624 47.5425 11.9971C47.5425 5.37031 42.0764 0 35.3313 0ZM35.3313 18.928C31.4361 18.928 28.2767 15.8241 28.2767 11.9971C28.2767 8.17022 31.4361 5.06622 35.3313 5.06622C39.2265 5.06622 42.3859 8.17022 42.3859 11.9971C42.3917 15.8241 39.2323 18.928 35.3313 18.928Z" fill="white"/>
    <path d="M5.92748 6.70153C5.92748 3.92458 13.3441 3.89015 14.9443 7.45888L19.1139 5.09503C17.9693 2.3984 13.8055 0.00585938 9.68836 0.00585938C4.8179 0.00585938 0.671583 2.50741 0.671583 6.87366C0.671583 11.8538 6.5173 13.1505 8.95253 13.73C11.3878 14.3095 14.6289 14.8144 14.6289 16.7881C14.6289 18.6183 12.5265 19.3068 10.2023 19.3068C7.26482 19.3068 4.98141 18.3372 3.98279 16.0938L0 18.3544C1.23222 21.8371 5.26757 24.0001 10.0855 24.0001C16.3633 24.0001 19.8556 21.1543 19.8556 16.5815C19.8556 12.9612 16.6436 10.6547 12.7368 9.71946C9.2562 8.88179 5.92748 8.39984 5.92748 6.70153Z" fill="white"/>
    <path d="M69.7341 14.6134C68.7063 17.1953 66.417 18.9395 63.4212 18.9395C59.5201 18.9395 56.4834 15.8298 56.4834 11.9971C56.4834 8.16448 59.5143 5.05475 63.4212 5.05475C66.2769 5.05475 68.6187 6.61535 69.7341 9.00789L74.3301 6.40306C72.3796 2.56467 68.1164 0 63.4212 0C56.6761 0 51.21 5.37031 51.21 11.9971C51.21 18.624 56.6761 23.9943 63.4212 23.9943C68.2566 23.9943 72.3796 21.2288 74.3418 17.224L69.7341 14.6134Z" fill="white"/>
    <path d="M91.3531 0.602539H85.5599L76.1519 23.3632H82.1027L88.4623 7.06298L95.0088 23.3632H100.96L91.3531 0.602539Z" fill="white"/>
    <path d="M120.255 15.0493L120.699 14.7854C122.976 13.4428 124.284 11.1593 124.284 8.51432C124.284 3.8612 120.798 0.61377 115.805 0.61377H104.61V23.3745H109.877V16.0878H114.97L119.256 23.3745H125.143L120.255 15.0493ZM115.501 11.6183H109.889V5.38738H115.501C117.586 5.38738 118.982 6.63816 118.982 8.49711C118.982 10.3618 117.58 11.6183 115.501 11.6183Z" fill="white"/>
</svg>
