<svg width="24" height="24" viewBox="0 0 24 24" fill="none" xmlns="http://www.w3.org/2000/svg">
    <path d="M15.5463 3H8.58702C5.50102 3 3 5.55241 3 8.70271V15.805C3 18.9535 5.50102 21.5059 8.58702 21.5059H15.5463C18.6323 21.5059 21.1333 18.9535 21.1333 15.805V8.70271C21.1333 5.55241 18.6323 3 15.5463 3ZM19.3933 15.1231C19.3933 17.6683 17.3713 19.7301 14.879 19.7301H9.25519C6.76117 19.7301 4.74003 17.6683 4.74003 15.1231V9.38282C4.74003 6.83934 6.76117 4.77579 9.25519 4.77579H14.879C17.3713 4.77579 19.3933 6.83934 19.3933 9.38282V15.1231Z" fill="#646F7C"/>
    <path d="M12.3082 7.41016C9.66973 7.41016 7.53125 9.59168 7.53125 12.2844C7.53125 14.9753 9.66973 17.1587 12.3082 17.1587C14.9459 17.1587 17.0844 14.9753 17.0844 12.2844C17.0852 9.59168 14.9467 7.41016 12.3082 7.41016ZM12.3082 15.2166C10.7197 15.2166 9.43416 13.9029 9.43416 12.2835C9.43416 10.6623 10.7197 9.35038 12.3082 9.35038C13.895 9.35038 15.1814 10.6623 15.1814 12.2835C15.1814 13.9029 13.895 15.2166 12.3082 15.2166Z" fill="#646F7C"/>
    <path d="M17.9683 7.33421C17.9683 8.01879 17.4236 8.57378 16.7528 8.57378C16.082 8.57378 15.5391 8.01879 15.5391 7.33421C15.5391 6.64963 16.0829 6.09375 16.7528 6.09375C17.4236 6.09464 17.9683 6.65053 17.9683 7.33421Z" fill="#646F7C"/>
</svg>
