<svg width="215" height="42" viewBox="0 0 215 42" fill="none" xmlns="http://www.w3.org/2000/svg">
<path d="M60.4998 0C48.9498 0 39.5898 9.36 39.5898 20.91C39.5898 32.46 48.9498 41.82 60.4998 41.82C72.0498 41.82 81.4099 32.46 81.4099 20.91C81.4099 9.36 72.0498 0 60.4998 0ZM60.4998 32.99C53.8298 32.99 48.4199 27.58 48.4199 20.91C48.4199 14.24 53.8298 8.83 60.4998 8.83C67.1698 8.83 72.5798 14.24 72.5798 20.91C72.5898 27.58 67.1798 32.99 60.4998 32.99Z" fill="#646F7C"/>
<path d="M10.15 11.6798C10.15 6.83976 22.85 6.77976 25.59 12.9998L32.73 8.87977C30.77 4.17977 23.64 0.00976562 16.59 0.00976562C8.25 0.00976562 1.14999 4.36977 1.14999 11.9798C1.14999 20.6598 11.16 22.9198 15.33 23.9298C19.5 24.9398 25.05 25.8198 25.05 29.2598C25.05 32.4498 21.45 33.6498 17.47 33.6498C12.44 33.6498 8.52998 31.9598 6.81998 28.0498L0 31.9898C2.11 38.0598 9.01999 41.8298 17.27 41.8298C28.02 41.8298 34 36.8698 34 28.8998C34 22.5898 28.5 18.5698 21.81 16.9398C15.85 15.4798 10.15 14.6398 10.15 11.6798Z" fill="#646F7C"/>
<path d="M119.411 25.47C117.651 29.97 113.731 33.01 108.601 33.01C101.921 33.01 96.7214 27.59 96.7214 20.91C96.7214 14.23 101.911 8.81001 108.601 8.81001C113.491 8.81001 117.501 11.53 119.411 15.7L127.281 11.16C123.941 4.47 116.641 0 108.601 0C97.0514 0 87.6914 9.36 87.6914 20.91C87.6914 32.46 97.0514 41.82 108.601 41.82C116.881 41.82 123.941 37 127.301 30.02L119.411 25.47Z" fill="#646F7C"/>
<path d="M156.428 1.0498H146.508L130.398 40.7198H140.588L151.478 12.3098L162.688 40.7198H172.878L156.428 1.0498Z" fill="#646F7C"/>
<path d="M205.919 26.2303L206.679 25.7703C210.579 23.4303 212.819 19.4503 212.819 14.8403C212.819 6.73032 206.849 1.07031 198.299 1.07031H179.129V40.7403H188.149V28.0403H196.869L204.209 40.7403H214.289L205.919 26.2303ZM197.779 20.2503H188.169V9.39031H197.779C201.349 9.39031 203.739 11.5703 203.739 14.8103C203.739 18.0603 201.339 20.2503 197.779 20.2503Z" fill="#646F7C"/>
</svg>
